<svg version="1.2" xmlns="http://www.w3.org/2000/svg" viewBox="0 0 200 27" width="200" height="27">
	<title>Nytt projekt</title>
	<style>
		.s0 { fill: #5d5770 } 
	</style>
	<path id="ReSummera" class="s0" aria-label="ReSummera"  d="m29 13.2l6.4 11.8h-10.5l-3.7-8.7-1.6 8.7h-10.3l4.4-24.1h14q2.8 0 4.4 2 1.6 1.9 1.1 4.7-0.4 1.7-1.5 3.2-1.1 1.5-2.7 2.4zm-7-0.9h2.7l1.3-6.8h-2.8zm6.2 1l6.4 11.8h-10.5l-3.6-8.7-1.6 8.7h-10.3l4.3-24.1h14.1q2.7 0 4.3 1.9 1.6 2 1.1 4.7-0.3 1.8-1.5 3.3-1.1 1.5-2.7 2.4zm-7-1h2.8l1.2-6.8h-2.8zm23.9 9.3h5.5l-1.5 3.5h-12.4l3.3-18.3h12.5l0.2 3.4h-5.5l-0.9 4.6h3.7l0.2 3.5h-4.5zm-0.6 0h5.5l-1.5 3.4h-12.4l3.3-18.3h12.5l0.2 3.5h-5.5l-0.8 4.6h3.6l0.2 3.5h-4.5zm26.7-3.1q-0.5 2.7-2.8 4.6-2.3 1.9-4.9 1.9h-8.5l-1.5-4.5h7.1l-4.4-9.6q-0.7-1.5-0.3-3.4 0.5-2.7 2.7-4.7 2.3-1.9 5-1.9h9.2l0.7 4.6h-7.2l4.5 9.4q0.7 1.6 0.4 3.6zm-0.8 0q-0.5 2.7-2.8 4.6-2.2 1.9-4.9 1.9h-8.4l-1.6-4.5h7.1l-4.4-9.6q-0.7-1.5-0.3-3.4 0.5-2.7 2.7-4.7 2.3-1.9 5-1.9h9.2l0.7 4.6h-7.2l4.5 9.4q0.7 1.6 0.4 3.6zm20.8-11.8l-1.9 10.7q-0.6 3.3-3.4 5.7-2.7 2.3-6 2.3-3.3 0-5.2-2.3-1.9-2.4-1.3-5.7l2-10.7h8l-2.8 15h2.9l2.7-15zm-0.6 0l-2 10.7q-0.6 3.3-3.3 5.7-2.8 2.3-6.1 2.3-3.2 0-5.2-2.3-1.9-2.4-1.3-5.7l2-10.7h8l-2.7 15h2.8l2.7-15zm22.8 0l-3.3 18.3h-7.9l1.4-7.5-4.7 6.6h-2l-2.1-5.8-1.2 6.7h-3.8l3.3-18.3h5.6l2.7 6.6 5-6.6zm-0.6 0l-3.4 18.3h-7.8l1.4-7.5-4.7 6.6h-2.1l-2.1-5.8-1.2 6.7h-3.8l3.4-18.3h5.5l2.8 6.6 4.9-6.6zm23.8 0l-3.3 18.3h-7.8l1.3-7.5-4.7 6.6h-2l-2.1-5.8-1.2 6.7h-3.8l3.3-18.3h5.6l2.7 6.6 5-6.6zm-0.6 0l-3.3 18.3h-7.9l1.4-7.5-4.7 6.6h-2l-2.1-5.8-1.2 6.7h-3.8l3.3-18.3h5.6l2.7 6.6 5-6.6zm8.6 14.9h5.5l-1.5 3.4h-12.4l3.3-18.3h12.5l0.2 3.4h-5.5l-0.9 4.7h3.7l0.2 3.4h-4.5zm-0.6 0h5.5l-1.5 3.5h-12.4l3.3-18.3h12.5l0.2 3.4h-5.5l-0.9 4.7h3.7l0.2 3.4h-4.5zm22.8-5.5l4.9 8.9h-8l-2.8-6.6-1.2 6.6h-7.8l3.3-18.3h10.7q2.1 0 3.3 1.5 1.2 1.5 0.8 3.6-0.2 1.3-1.1 2.5-0.8 1.1-2.1 1.8zm-5.3-0.8h2.1l0.9-5.1h-2.1zm4.8 0.7l4.8 9h-7.9l-2.8-6.6-1.2 6.6h-7.9l3.4-18.3h10.6q2.1 0 3.3 1.5 1.2 1.5 0.8 3.5-0.2 1.4-1.1 2.5-0.8 1.2-2 1.8zm-5.4-0.7h2.1l1-5.2h-2.1zm27.3-8.6l3.1 18.3h-8.2q0-0.1-0.4-2.8h-4.2l-1.6 2.8h-4.2l9.9-18.3zm-7.9 12.1h1.8l-0.5-2.6zm7.3-12l3.2 18.3h-8.2q0-0.1-0.5-2.9h-4.2l-1.5 2.9h-4.2l9.8-18.3zm-7.9 12h1.8l-0.4-2.5z"/>
</svg>